<?xml version="1.0" encoding="UTF-8"?>
<svg xmlns="http://www.w3.org/2000/svg" xmlns:xlink="http://www.w3.org/1999/xlink" width="50px" height="47px" viewBox="0 0 49 47" version="1.1">
<defs>
<linearGradient id="linear0" gradientUnits="userSpaceOnUse" x1="353.100006" y1="56.299999" x2="107.099998" y2="783" gradientTransform="matrix(0.061182,0,0,0.0621924,0.0275319,0.0226683)">
<stop offset="0" style="stop-color:rgb(6.666667%,29.019608%,54.509804%);stop-opacity:1;"/>
<stop offset="1" style="stop-color:rgb(2.352941%,41.176471%,73.72549%);stop-opacity:1;"/>
</linearGradient>
<linearGradient id="linear1" gradientUnits="userSpaceOnUse" x1="429.799988" y1="394.899994" x2="372.899994" y2="414.200012" gradientTransform="matrix(0.061182,0,0,0.0621924,0.0275319,0.0226683)">
<stop offset="0" style="stop-color:rgb(0%,0%,0%);stop-opacity:0.301961;"/>
<stop offset="0.1" style="stop-color:rgb(0%,0%,0%);stop-opacity:0.2;"/>
<stop offset="0.3" style="stop-color:rgb(0%,0%,0%);stop-opacity:0.101961;"/>
<stop offset="0.6" style="stop-color:rgb(0%,0%,0%);stop-opacity:0.101961;"/>
<stop offset="1" style="stop-color:rgb(0%,0%,0%);stop-opacity:0;"/>
</linearGradient>
<linearGradient id="linear2" gradientUnits="userSpaceOnUse" x1="398.399994" y1="35.099998" x2="668.400024" y2="754.400024" gradientTransform="matrix(0.061182,0,0,0.0621924,0.0275319,0.0226683)">
<stop offset="0" style="stop-color:rgb(23.529412%,79.607843%,95.686275%);stop-opacity:1;"/>
<stop offset="1" style="stop-color:rgb(15.686275%,57.254902%,87.45098%);stop-opacity:1;"/>
</linearGradient>
</defs>
<g id="surface1">
<path style=" stroke:none;fill-rule:nonzero;fill:url(#linear0);" d="M 16.34375 0.046875 L 30.828125 0.046875 L 15.792969 45.355469 C 15.714844 45.585938 15.605469 45.804688 15.460938 46 C 15.320312 46.195312 15.148438 46.367188 14.953125 46.511719 C 14.757812 46.652344 14.542969 46.765625 14.3125 46.839844 C 14.085938 46.914062 13.84375 46.953125 13.605469 46.953125 L 2.335938 46.953125 C 1.96875 46.953125 1.609375 46.863281 1.28125 46.695312 C 0.957031 46.523438 0.675781 46.277344 0.460938 45.976562 C 0.25 45.671875 0.109375 45.324219 0.0546875 44.953125 C 0 44.585938 0.03125 44.210938 0.148438 43.855469 L 14.15625 1.644531 C 14.234375 1.414062 14.34375 1.195312 14.488281 1 C 14.632812 0.800781 14.804688 0.628906 14.996094 0.488281 C 15.191406 0.34375 15.410156 0.234375 15.636719 0.160156 C 15.867188 0.0859375 16.105469 0.046875 16.34375 0.046875 Z M 16.34375 0.046875 "/>
<path style=" stroke:none;fill-rule:nonzero;fill:rgb(0%,47.058824%,83.137256%);fill-opacity:1;" d="M 43.042969 46.953125 L 30.039062 46.953125 C 29.894531 46.953125 29.75 46.9375 29.605469 46.910156 C 29.460938 46.882812 29.324219 46.84375 29.1875 46.789062 C 29.050781 46.734375 28.921875 46.667969 28.800781 46.589844 C 28.675781 46.511719 28.5625 46.417969 28.457031 46.320312 L 13.699219 32.308594 C 13.542969 32.160156 13.433594 31.96875 13.386719 31.757812 C 13.289062 31.324219 13.464844 30.875 13.824219 30.625 C 14 30.503906 14.210938 30.4375 14.421875 30.4375 L 37.390625 30.4375 Z M 43.042969 46.953125 "/>
<path style=" stroke:none;fill-rule:nonzero;fill:url(#linear1);" d="M 30.878906 0.046875 L 20.742188 30.441406 L 37.304688 30.4375 L 42.988281 46.953125 L 30.03125 46.953125 C 29.898438 46.949219 29.765625 46.9375 29.632812 46.914062 C 29.5 46.890625 29.371094 46.855469 29.246094 46.808594 C 28.992188 46.714844 28.757812 46.578125 28.550781 46.402344 L 18.589844 36.953125 L 15.800781 45.3125 C 15.726562 45.519531 15.628906 45.71875 15.503906 45.902344 C 15.257812 46.269531 14.917969 46.5625 14.523438 46.75 C 14.324219 46.847656 14.117188 46.914062 13.902344 46.953125 L 2.339844 46.953125 C 1.972656 46.953125 1.605469 46.863281 1.277344 46.691406 C 0.613281 46.339844 0.15625 45.683594 0.0546875 44.925781 C 0.00390625 44.550781 0.0429688 44.171875 0.167969 43.820312 L 14.152344 1.675781 C 14.226562 1.441406 14.335938 1.21875 14.476562 1.015625 C 14.617188 0.816406 14.792969 0.640625 14.988281 0.496094 C 15.183594 0.351562 15.398438 0.238281 15.632812 0.160156 C 15.863281 0.0859375 16.101562 0.046875 16.347656 0.046875 Z M 30.878906 0.046875 "/>
<path style=" stroke:none;fill-rule:nonzero;fill:url(#linear2);" d="M 48.851562 43.855469 C 48.96875 44.210938 49 44.585938 48.945312 44.953125 C 48.890625 45.320312 48.753906 45.671875 48.539062 45.976562 C 48.105469 46.589844 47.410156 46.953125 46.667969 46.953125 L 30.527344 46.953125 C 30.890625 46.953125 31.253906 46.863281 31.578125 46.695312 C 31.902344 46.523438 32.183594 46.277344 32.398438 45.976562 C 32.613281 45.671875 32.75 45.324219 32.804688 44.953125 C 32.859375 44.585938 32.828125 44.210938 32.710938 43.855469 L 18.703125 1.644531 C 18.546875 1.179688 18.253906 0.773438 17.863281 0.488281 C 17.667969 0.34375 17.453125 0.234375 17.226562 0.160156 C 16.996094 0.0859375 16.757812 0.046875 16.519531 0.046875 L 32.660156 0.046875 C 32.898438 0.046875 33.136719 0.0859375 33.367188 0.160156 C 33.59375 0.234375 33.808594 0.34375 34.003906 0.488281 C 34.199219 0.628906 34.371094 0.800781 34.511719 1 C 34.65625 1.195312 34.769531 1.410156 34.84375 1.644531 Z M 48.851562 43.855469 "/>
</g>
</svg>
