<?xml version="1.0" encoding="UTF-8"?>
<svg xmlns="http://www.w3.org/2000/svg" xmlns:xlink="http://www.w3.org/1999/xlink" width="43px" height="40px" viewBox="0 0 42 40" version="1.1">
<defs>
<linearGradient id="linear0" gradientUnits="userSpaceOnUse" x1="353.100006" y1="56.299999" x2="107.099998" y2="783" gradientTransform="matrix(0.0513929,0,0,0.0529297,0.443127,0.0192922)">
<stop offset="0" style="stop-color:rgb(6.666667%,29.019608%,54.509804%);stop-opacity:1;"/>
<stop offset="1" style="stop-color:rgb(2.352941%,41.176471%,73.72549%);stop-opacity:1;"/>
</linearGradient>
<linearGradient id="linear1" gradientUnits="userSpaceOnUse" x1="429.799988" y1="394.899994" x2="372.899994" y2="414.200012" gradientTransform="matrix(0.0513929,0,0,0.0529297,0.443127,0.0192922)">
<stop offset="0" style="stop-color:rgb(0%,0%,0%);stop-opacity:0.301961;"/>
<stop offset="0.1" style="stop-color:rgb(0%,0%,0%);stop-opacity:0.2;"/>
<stop offset="0.3" style="stop-color:rgb(0%,0%,0%);stop-opacity:0.101961;"/>
<stop offset="0.6" style="stop-color:rgb(0%,0%,0%);stop-opacity:0.101961;"/>
<stop offset="1" style="stop-color:rgb(0%,0%,0%);stop-opacity:0;"/>
</linearGradient>
<linearGradient id="linear2" gradientUnits="userSpaceOnUse" x1="398.399994" y1="35.099998" x2="668.400024" y2="754.400024" gradientTransform="matrix(0.0513929,0,0,0.0529297,0.443127,0.0192922)">
<stop offset="0" style="stop-color:rgb(23.529412%,79.607843%,95.686275%);stop-opacity:1;"/>
<stop offset="1" style="stop-color:rgb(15.686275%,57.254902%,87.45098%);stop-opacity:1;"/>
</linearGradient>
</defs>
<g id="surface1">
<path style=" stroke:none;fill-rule:nonzero;fill:url(#linear0);" d="M 14.148438 0.0390625 L 26.316406 0.0390625 L 13.6875 38.601562 C 13.621094 38.796875 13.527344 38.984375 13.40625 39.148438 C 13.289062 39.316406 13.144531 39.460938 12.980469 39.585938 C 12.816406 39.703125 12.636719 39.800781 12.441406 39.863281 C 12.253906 39.925781 12.046875 39.960938 11.847656 39.960938 L 2.382812 39.960938 C 2.074219 39.960938 1.773438 39.882812 1.496094 39.742188 C 1.222656 39.59375 0.988281 39.386719 0.808594 39.128906 C 0.628906 38.871094 0.511719 38.574219 0.464844 38.257812 C 0.421875 37.945312 0.445312 37.625 0.542969 37.324219 L 12.3125 1.398438 C 12.375 1.203125 12.46875 1.015625 12.589844 0.851562 C 12.710938 0.679688 12.855469 0.535156 13.015625 0.414062 C 13.179688 0.292969 13.363281 0.199219 13.554688 0.136719 C 13.75 0.0742188 13.949219 0.0390625 14.148438 0.0390625 Z M 14.148438 0.0390625 "/>
<path style=" stroke:none;fill-rule:nonzero;fill:rgb(0%,47.058824%,83.137256%);fill-opacity:1;" d="M 36.574219 39.960938 L 25.652344 39.960938 C 25.53125 39.960938 25.410156 39.945312 25.289062 39.921875 C 25.167969 39.898438 25.050781 39.867188 24.9375 39.820312 C 24.824219 39.773438 24.714844 39.71875 24.613281 39.652344 C 24.507812 39.585938 24.414062 39.503906 24.324219 39.421875 L 11.925781 27.496094 C 11.796875 27.371094 11.703125 27.207031 11.664062 27.027344 C 11.582031 26.660156 11.730469 26.277344 12.03125 26.0625 C 12.179688 25.960938 12.355469 25.902344 12.535156 25.902344 L 31.828125 25.902344 Z M 36.574219 39.960938 "/>
<path style=" stroke:none;fill-rule:nonzero;fill:url(#linear1);" d="M 26.359375 0.0390625 L 17.84375 25.90625 L 31.757812 25.902344 L 36.53125 39.960938 L 25.644531 39.960938 C 25.535156 39.957031 25.421875 39.945312 25.3125 39.925781 C 25.199219 39.90625 25.089844 39.878906 24.988281 39.835938 C 24.773438 39.757812 24.578125 39.640625 24.402344 39.492188 L 16.035156 31.449219 L 13.691406 38.5625 C 13.628906 38.738281 13.546875 38.910156 13.441406 39.066406 C 13.238281 39.378906 12.949219 39.628906 12.621094 39.789062 C 12.453125 39.871094 12.277344 39.925781 12.097656 39.960938 L 2.386719 39.960938 C 2.078125 39.960938 1.769531 39.882812 1.492188 39.738281 C 0.933594 39.4375 0.550781 38.878906 0.464844 38.234375 C 0.421875 37.914062 0.457031 37.59375 0.5625 37.292969 L 12.308594 1.425781 C 12.371094 1.226562 12.460938 1.039062 12.582031 0.863281 C 12.699219 0.695312 12.847656 0.546875 13.011719 0.421875 C 13.175781 0.300781 13.355469 0.203125 13.550781 0.136719 C 13.746094 0.0742188 13.945312 0.0390625 14.152344 0.0390625 Z M 26.359375 0.0390625 "/>
<path style=" stroke:none;fill-rule:nonzero;fill:url(#linear2);" d="M 41.457031 37.324219 C 41.554688 37.625 41.578125 37.945312 41.535156 38.257812 C 41.488281 38.570312 41.375 38.871094 41.191406 39.128906 C 40.828125 39.652344 40.246094 39.960938 39.621094 39.960938 L 26.0625 39.960938 C 26.367188 39.960938 26.671875 39.882812 26.945312 39.742188 C 27.21875 39.59375 27.453125 39.386719 27.632812 39.128906 C 27.816406 38.871094 27.929688 38.574219 27.976562 38.257812 C 28.023438 37.945312 27.996094 37.625 27.898438 37.324219 L 16.128906 1.398438 C 16 1.003906 15.753906 0.660156 15.425781 0.414062 C 15.261719 0.292969 15.082031 0.199219 14.890625 0.136719 C 14.695312 0.0742188 14.496094 0.0390625 14.296875 0.0390625 L 27.855469 0.0390625 C 28.054688 0.0390625 28.253906 0.0742188 28.449219 0.136719 C 28.640625 0.199219 28.820312 0.292969 28.984375 0.414062 C 29.148438 0.535156 29.292969 0.679688 29.410156 0.851562 C 29.53125 1.015625 29.625 1.199219 29.6875 1.398438 Z M 41.457031 37.324219 "/>
</g>
</svg>
